<svg xmlns="http://www.w3.org/2000/svg" width="200" height="52"><defs><linearGradient id="gradient" gradientTransform="rotate(90)"><stop offset="0" stop-color="#16C784"></stop><stop offset="1" stop-color="#16C784" stop-opacity="0"></stop></linearGradient></defs><path stroke="#16C784" stroke-chartWidth="1" stroke-dasharray="0 263.7169569513696 12653.332602891254" fill="url(#gradient)" d="M200,6.285364066638285L200,52L0,52L0,33.997678981992124L1.9976028765481422,52L4.115061925689173,50.17080289455785L6.132640831002797,31.857111692111495L8.070315621254496,39.59239457134119L10.087894526568117,23.667362709518535L12.08549740311626,25.030298541438906L14.103076308429884,42.60900272413104L16.120655213743508,34.96430248800019L18.218138234119056,19.172834549812613L20.135836995605274,23.819053054359443L22.233320015980823,7.437545411627081L24.250898921294446,5.540316045952353L26.268477826608073,22.18344631538568L28.286056731921693,7.318673452766813L30.283659608469836,49.235820557579096L32.30123851378346,33.16815129794688L34.31881741909709,18.73910131510844L36.33639632441071,34.108831760843515L38.35397522972433,0L40.35157810627247,31.23463223996486L42.3691570115861,35.389153175324026L44.36675988813424,4.154022349276136L46.36436276468238,15.440458433900215L48.381941669996,28.39683790726073L50.37954454654414,24.29465020272255L52.39712345185777,30.472028352619404L54.394726328405916,23.753467971027337L56.412305233719536,27.775799062050737L58.42988413903316,20.839807691478047L60.427487015581306,22.61730419655569L62.42508989212945,40.57508906779604L64.44266879744308,30.124165183381233L66.44027167399122,20.732831807109143L68.55773072313224,32.520976504331664L70.47542948461846,22.709341296225958L72.57291250499401,37.33589960167474L74.59049141030764,46.736697703617224L76.60807031562126,24.570369755537037L78.6056731921694,21.996095693621758L80.62325209748302,21.989707312927088L82.64083100279665,25.894624611379342L84.63843387934479,48.41255586578069L86.67598881342388,41.288770438536204L88.67359168997203,38.08908600041657L90.69117059528566,17.563380329278083L92.70874950059928,36.54990866650467L94.70635237714743,18.71843324289606L96.72393128246105,33.818254542474655L98.74151018777468,20.93547240012725L100.73911306432282,39.01633802826076L102.75669196963644,31.60644608675657L104.75429484618456,39.41381644202615L106.77187375149819,40.03924586143714L108.78945265681183,41.610498154014664L110.78705553335996,21.830563898489316L112.80463443867359,26.590286895390953L114.80223731522175,40.468060258143026L116.81981622053537,32.1566135013007L118.8174190970835,21.451664738772706L120.83499800239711,34.64157067570304L122.85257690771074,24.933847125379756L124.8501797842589,15.644339556434762L126.86775868957253,27.81981238595676L128.96524170994806,24.014992908495106L130.9628445864962,38.63808411206284L132.98042349180983,26.623148561466536L134.99800239712346,28.423066103963347L136.99560527367157,29.643589346945795L139.01318417898523,6.268911964557747L141.03076308429885,26.38576448639192L143.02836596084697,23.61199591911634L145.0459448661606,36.41792928681519L147.06352377147422,44.18154204133724L149.0211745904914,43.03192534764326L151.078705553336,10.6256357462445L153.07630842988414,34.14928845502526L155.09388733519776,35.4312176610212L157.0914902117459,19.208359792988784L159.10906911705953,23.639363493693516L161.10667199360768,4.2178512524116245L163.12425089892128,22.585354131719836L165.1418298042349,19.2833457948905L167.15940870954856,20.98095304092099L169.15701158609667,17.575385716773845L171.1745904914103,39.60685158740967L173.17219336795847,18.441132855798784L175.16979624450659,14.560559464950527L177.2872552936476,17.547207197980786L179.30483419896123,28.00846882824696L181.22253296044747,26.548819426882154L183.320015980823,20.988180807000703L185.33759488613663,32.49089885751422L187.35517379145026,21.39172881310111L189.3527766679984,21.632506537656962L191.37035557331203,20.515492077134915L193.38793447862565,14.69518931406036L195.3855373551738,23.9584192233724L197.38314023172194,34.84238880819622L199.40071913703557,7.766238739827434Z"></path></svg>